<?xml version="1.0" encoding="UTF-8" standalone="no"?>
<!-- Created with Inkscape (http://www.inkscape.org/) -->

<svg
   xmlns:dc="http://purl.org/dc/elements/1.1/"
   xmlns:cc="http://creativecommons.org/ns#"
   xmlns:rdf="http://www.w3.org/1999/02/22-rdf-syntax-ns#"
   xmlns:svg="http://www.w3.org/2000/svg"
   xmlns="http://www.w3.org/2000/svg"
   xmlns:sodipodi="http://sodipodi.sourceforge.net/DTD/sodipodi-0.dtd"
   xmlns:inkscape="http://www.inkscape.org/namespaces/inkscape"
   width="60.70079"
   height="80"
   viewBox="0 0 16.060418 21.166668"
   version="1.1"
   id="svg8"
   inkscape:version="0.92.2 (5c3e80d, 2017-08-06)"
   sodipodi:docname="blackdrop.svg">
  <defs
     id="defs2" />
  <sodipodi:namedview
     id="base"
     pagecolor="#ffffff"
     bordercolor="#666666"
     borderopacity="1.0"
     inkscape:pageopacity="0.0"
     inkscape:pageshadow="2"
     inkscape:zoom="1.4"
     inkscape:cx="129.14771"
     inkscape:cy="19.515088"
     inkscape:document-units="mm"
     inkscape:current-layer="g77"
     showgrid="false"
     inkscape:window-width="1920"
     inkscape:window-height="1051"
     inkscape:window-x="-9"
     inkscape:window-y="-9"
     inkscape:window-maximized="1"
     units="px"
     inkscape:pagecheckerboard="true" />
  <metadata
     id="metadata5">
    <rdf:RDF>
      <cc:Work
         rdf:about="">
        <dc:format>image/svg+xml</dc:format>
        <dc:type
           rdf:resource="http://purl.org/dc/dcmitype/StillImage" />
        <dc:title></dc:title>
      </cc:Work>
    </rdf:RDF>
  </metadata>
  <g
     inkscape:label="Layer 1"
     inkscape:groupmode="layer"
     id="layer1"
     transform="translate(0,-275.86666)">
    <g
       id="g77"
       transform="matrix(0.04200715,0,0,0.04040775,-29.562202,139.40135)"
       style="fill:#000000">
      <g
         id="g20"
         style="fill:#000000" />
      <g
         id="g22"
         style="fill:#000000" />
      <g
         id="g24"
         style="fill:#000000" />
      <g
         id="g26"
         style="fill:#000000" />
      <g
         id="g28"
         style="fill:#000000" />
      <g
         id="g30"
         style="fill:#000000" />
      <g
         id="g32"
         style="fill:#000000" />
      <g
         id="g34"
         style="fill:#000000" />
      <g
         id="g36"
         style="fill:#000000" />
      <g
         id="g38"
         style="fill:#000000" />
      <g
         id="g40"
         style="fill:#000000" />
      <g
         id="g42"
         style="fill:#000000" />
      <g
         id="g44"
         style="fill:#000000" />
      <g
         id="g46"
         style="fill:#000000" />
      <g
         id="g48"
         style="fill:#000000" />
      <g
         style="fill:#000000"
         id="g118"
         transform="matrix(1.4284536,0,0,1.3896104,642.68225,3395.5208)">
        <g
           style="fill:#000000"
           id="g116">
          <g
             style="fill:#000000"
             id="g114">
            <path
               style="fill:#000000"
               inkscape:connector-curvature="0"
               d="M 287.474,168.212 242.41,94.766 c -2.166,-3.531 -6.788,-4.636 -10.314,-2.47 -3.531,2.166 -4.637,6.784 -2.471,10.315 l 45.064,73.446 c 26.965,43.946 20.334,100.101 -16.124,136.559 -43.283,43.285 -113.714,43.284 -156.999,0 C 65.108,276.158 58.479,220.003 85.442,176.057 L 180.066,21.841 205.35,63.048 c 2.166,3.531 6.787,4.635 10.314,2.47 3.531,-2.166 4.637,-6.784 2.471,-10.315 L 186.459,3.578 C 185.095,1.355 182.674,0 180.066,0 c -2.608,0 -5.029,1.355 -6.393,3.578 L 72.657,168.212 c -14.744,24.03 -21.043,52.682 -17.737,80.68 3.306,27.998 16.105,54.396 36.04,74.33 23.801,23.801 55.446,36.909 89.106,36.909 33.66,0 65.305,-13.108 89.107,-36.909 19.935,-19.935 32.733,-46.332 36.039,-74.33 3.305,-27.997 -2.993,-56.65 -17.738,-80.68 z"
               id="path110" />
            <path
               style="fill:#000000"
               inkscape:connector-curvature="0"
               d="m 215.979,78.245 c 0,1.992 0.807,3.886 2.189,5.31 2.636,2.556 6.795,2.917 9.772,0.719 3.006,-2.22 3.889,-6.468 2.054,-9.718 -1.701,-3.011 -5.38,-4.499 -8.696,-3.479 -3.12,0.958 -5.319,3.891 -5.319,7.168 z"
               id="path112" />
          </g>
        </g>
      </g>
    </g>
  </g>
</svg>
